<svg xmlns="http://www.w3.org/2000/svg" xmlns:xlink="http://www.w3.org/1999/xlink" version="1.1" x="0px" y="0px" viewBox="0 0 100 125" enable-background="new 0 0 100 100" xml:space="preserve"><g><path fill="#000000" d="M51.9,20.8c2,0,3.7-0.7,5-2c1.4-1.4,2.1-3,2.1-5.1c0-2-0.7-3.6-2.1-5c-1.4-1.4-3.1-2.1-5-2.1   c-2,0-3.8,0.7-5,2.1c-1.4,1.4-2,3-2,5c0,2.1,0.6,3.7,2,5.1C48.1,20.2,49.8,20.8,51.9,20.8z"/><path fill="#000000" d="M85.1,23.8l-2.3-1.5c-0.1,0-0.2-0.1-0.3,0l-9.1,3c-0.1,0-0.2,0.2-0.2,0.3v10.1l-4.3,4.3v-8.2   c0-2.4-0.9-4.6-2.7-6.4c-1.8-1.8-3.9-2.7-6.5-2.7H53v3.9h-2.4v-3.9h-6.7c-2.5,0-4.6,0.9-6.4,2.7c-1.8,1.9-2.7,4-2.7,6.5v22.3   c0,0.8,0.3,1.6,0.9,2.2c0.6,0.6,1.3,0.9,2.2,0.9c1,0,1.7-0.3,2.3-0.9c0.5-0.6,0.8-1.4,0.8-2.2V34.2h1.6v55.2c0,1.1,0.5,2.1,1.3,2.8   c0.8,0.8,1.8,1.2,2.9,1.2c1.2,0,2.2-0.4,3-1.2c0.9-0.8,1.2-1.8,1.2-2.8v-1h1.8v1c0,1.1,0.4,2.1,1.2,2.8c0.8,0.8,1.8,1.2,3,1.2   c1.1,0,2-0.4,2.8-1.2c0.8-0.8,1.2-1.8,1.2-2.8V34.2h1.7v13.3c0,0.8,0.3,1.6,0.8,2.2c0.7,0.6,1.4,0.9,2.3,0.9c0.9,0,1.6-0.2,2.1-0.7   v0l0,0c0,0,0.1-0.1,0.1-0.1c0,0,0,0,0,0l10.2-10.2c0.1-0.1,0.1-0.1,0.2-0.2l6.5-2.1c0.1,0,0.2-0.2,0.2-0.3V24.1   C85.3,24,85.2,23.9,85.1,23.8z M82.7,29.1l-1.7,0.6v3.8l-1,0.4v-3.8l-1.7,0.6v-1l1.7-0.6v-1.2l1-0.4v1.2l1.7-0.6V29.1z M75.3,26.7   l0.1,7.5l0.1,4.7l-1.3-0.9l0-0.2l-0.1-3l-0.2-9l8.8-3l1.4,0.9L75.3,26.7z"/></g><text x="0" y="115" fill="#000000" font-size="5px" font-weight="bold" font-family="'Helvetica Neue', Helvetica, Arial-Unicode, Arial, Sans-serif">Created by Alvaro Cabrera</text><text x="0" y="120" fill="#000000" font-size="5px" font-weight="bold" font-family="'Helvetica Neue', Helvetica, Arial-Unicode, Arial, Sans-serif">from the Noun Project</text></svg>