<svg xmlns="http://www.w3.org/2000/svg" xmlns:xlink="http://www.w3.org/1999/xlink" version="1.1" x="0px" y="0px" viewBox="0 0 100 125" style="enable-background:new 0 0 100 100;" xml:space="preserve"><path d="M68,56H32v36h36V56z M53,77v7.5c0,0.828-0.672,1.5-1.5,1.5h-3c-0.828,0-1.5-0.672-1.5-1.5V77h-4.5  c-0.828,0-1.5-0.672-1.5-1.5v-3c0-0.828,0.672-1.5,1.5-1.5H47v-4.5c0-0.828,0.672-1.5,1.5-1.5h3c0.828,0,1.5,0.672,1.5,1.5V71h4.5  c0.828,0,1.5,0.672,1.5,1.5v3c0,0.828-0.672,1.5-1.5,1.5H53z"/><path d="M89,74v18H74V56.27C82.51,57.701,89,65.083,89,74z"/><path d="M26,92H11V74c0-8.917,6.49-16.299,15-17.73V92z"/><path d="M70.946,27.935C70.964,28.29,71,28.64,71,29c0,11.58-9.422,21-21,21s-21-9.42-21-21c0-0.36,0.036-0.71,0.054-1.065  c1.928-0.628,3.86-1.16,5.794-1.614C33.18,35.57,40.308,44.4,50,44.4c9.706,0,16.816-8.841,15.152-18.079  C67.086,26.774,69.018,27.306,70.946,27.935z"/><path d="M29.885,22.997C32.476,14.335,40.508,8,50,8s17.524,6.335,20.115,14.997C56.75,19.082,43.25,19.082,29.885,22.997z"/><text x="0" y="115" fill="#000000" font-size="5px" font-weight="bold" font-family="'Helvetica Neue', Helvetica, Arial-Unicode, Arial, Sans-serif">Created by Ayub Irawan</text><text x="0" y="120" fill="#000000" font-size="5px" font-weight="bold" font-family="'Helvetica Neue', Helvetica, Arial-Unicode, Arial, Sans-serif">from the Noun Project</text></svg>